ffmpeg started on 2025-05-12 at 16:16:26
Report written to "D:\Convert\FFMetrics\reports\psnr_report-6.txt"
Log level: 32
Command line:
ffmpeg -hide_banner -nostdin -i "G:\\\xc0\xed\xe8\xec\xe5\\\xce\xed\xe3\xee\xe8\xed\xe3\xe8\\!_35_\xcb\xe5\xf2\xee_2024\\DreamCast\\\xcc\xe0\xeb\xe5\xed\xfc\xea\xe8\xe9 \xe3\xf0\xe0\xe6\xe4\xe0\xed\xe8\xed\\[DC] Shoushimin Series - 08_Telegram_HEVC.mkv" -i "G:\\\xc0\xed\xe8\xec\xe5\\\xce\xed\xe3\xee\xe8\xed\xe3\xe8\\!_35_\xcb\xe5\xf2\xee_2024\\DreamCast\\\xcc\xe0\xeb\xe5\xed\xfc\xea\xe8\xe9 \xe3\xf0\xe0\xe6\xe4\xe0\xed\xe8\xed\\[DC] Shoushimin Series - 08_Telegram.mp4" -lavfi "[0:v]settb=AVTB,setpts=PTS-STARTPTS,format=pix_fmts=yuv420p10,fps=24000/1001,scale=1920:1080:flags=bicubic[main];[1:v]settb=AVTB,setpts=PTS-STARTPTS,format=pix_fmts=yuv420p,fps=24000/1001,scale=1920:1080:flags=bicubic[ref];[main][ref]psnr=eof_action=endall:stats_file='D\\:/Convert/FFMetrics/logs/psnr_logfile-6.txt'" -f null -
Input #0, matroska,webm, from 'G:\Аниме\Онгоинги\!_35_Лето_2024\DreamCast\Маленький гражданин\[DC] Shoushimin Series - 08_Telegram_HEVC.mkv':
  Metadata:
    COMPATIBLE_BRANDS: isomiso2avc1mp41
    MAJOR_BRAND     : isom
    MINOR_VERSION   : 512
    ENCODER         : Lavf61.7.100
  Duration: 00:22:55.75, start: -0.021000, bitrate: 791 kb/s
  Stream #0:0: Video: hevc (Main 10), yuv420p10le(tv, bt709, progressive), 1920x1080 [SAR 1:1 DAR 16:9], 23.98 fps, 23.98 tbr, 1k tbn (default)
      Metadata:
        HANDLER_NAME    : VideoHandler
        VENDOR_ID       : [0][0][0][0]
        ENCODER         : Lavc61.19.100 libx265
        BPS             : 595153
        DURATION        : 00:22:54.581708333
        NUMBER_OF_FRAMES: 32957
        NUMBER_OF_BYTES : 102260756
        _STATISTICS_WRITING_APP: mkvpropedit v66.0.0 ('Josie') 64-bit
        _STATISTICS_WRITING_DATE_UTC: 2025-05-08 09:13:47
        _STATISTICS_TAGS: BPS DURATION NUMBER_OF_FRAMES NUMBER_OF_BYTES
  Stream #0:1: Audio: aac (LC), 48000 Hz, stereo, fltp (default)
      Metadata:
        HANDLER_NAME    : SoundHandler
        VENDOR_ID       : [0][0][0][0]
        ENCODER         : Lavc61.19.100 aac
        BPS             : 193158
        DURATION        : 00:22:55.744000000
        NUMBER_OF_FRAMES: 64489
        NUMBER_OF_BYTES : 33217050
        _STATISTICS_WRITING_APP: mkvpropedit v66.0.0 ('Josie') 64-bit
        _STATISTICS_WRITING_DATE_UTC: 2025-05-08 09:13:47
        _STATISTICS_TAGS: BPS DURATION NUMBER_OF_FRAMES NUMBER_OF_BYTES
Input #1, mov,mp4,m4a,3gp,3g2,mj2, from 'G:\Аниме\Онгоинги\!_35_Лето_2024\DreamCast\Маленький гражданин\[DC] Shoushimin Series - 08_Telegram.mp4':
  Metadata:
    major_brand     : isom
    minor_version   : 512
    compatible_brands: isomiso2avc1mp41
    encoder         : Lavf61.1.100
  Duration: 00:22:55.71, start: 0.000000, bitrate: 1852 kb/s
  Stream #1:0[0x1](und): Video: h264 (High) (avc1 / 0x31637661), yuv420p(tv, bt709, progressive), 1920x1080 [SAR 1:1 DAR 16:9], 1706 kb/s, 23.98 fps, 23.98 tbr, 24k tbn (default)
      Metadata:
        handler_name    : VideoHandler
        vendor_id       : [0][0][0][0]
        encoder         : Lavc61.3.100 h264_qsv
  Stream #1:1[0x2](und): Audio: aac (HE-AACv2) (mp4a / 0x6134706D), 48000 Hz, stereo, fltp, 144 kb/s (default)
      Metadata:
        handler_name    : SoundHandler
        vendor_id       : [0][0][0][0]
Stream mapping:
  Stream #0:0 (hevc) -> settb:default
  Stream #1:0 (h264) -> settb:default
  psnr:default -> Stream #0:0 (wrapped_avframe)
  Stream #0:1 -> #0:1 (aac (native) -> pcm_s16le (native))
Output #0, null, to 'pipe:':
  Metadata:
    COMPATIBLE_BRANDS: isomiso2avc1mp41
    MAJOR_BRAND     : isom
    MINOR_VERSION   : 512
    encoder         : Lavf61.7.100
  Stream #0:0: Video: wrapped_avframe, yuv420p10le(tv, bt709, progressive), 1920x1080 [SAR 1:1 DAR 16:9], q=2-31, 200 kb/s, 23.98 fps, 23.98 tbn
      Metadata:
        encoder         : Lavc61.19.100 wrapped_avframe
  Stream #0:1: Audio: pcm_s16le, 48000 Hz, stereo, s16, 1536 kb/s (default)
      Metadata:
        HANDLER_NAME    : SoundHandler
        VENDOR_ID       : [0][0][0][0]
        _STATISTICS_TAGS: BPS DURATION NUMBER_OF_FRAMES NUMBER_OF_BYTES
        BPS             : 193158
        DURATION        : 00:22:55.744000000
        NUMBER_OF_FRAMES: 64489
        NUMBER_OF_BYTES : 33217050
        _STATISTICS_WRITING_APP: mkvpropedit v66.0.0 ('Josie') 64-bit
        _STATISTICS_WRITING_DATE_UTC: 2025-05-08 09:13:47
        encoder         : Lavc61.19.100 pcm_s16le
frame=  182 fps=0.0 q=-0.0 size=N/A time=00:00:07.59 bitrate=N/A speed=14.8x    frame=  398 fps=385 q=-0.0 size=N/A time=00:00:16.59 bitrate=N/A speed=16.1x    frame=  582 fps=378 q=-0.0 size=N/A time=00:00:24.27 bitrate=N/A speed=15.8x    frame=  820 fps=398 q=-0.0 size=N/A time=00:00:34.20 bitrate=N/A speed=16.6x    frame= 1035 fps=403 q=-0.0 size=N/A time=00:00:43.16 bitrate=N/A speed=16.8x    frame= 1250 fps=404 q=-0.0 size=N/A time=00:00:52.13 bitrate=N/A speed=16.9x    frame= 1453 fps=402 q=-0.0 size=N/A time=00:01:00.60 bitrate=N/A speed=16.8x    frame= 1653 fps=401 q=-0.0 size=N/A time=00:01:08.94 bitrate=N/A speed=16.7x    frame= 1875 fps=404 q=-0.0 size=N/A time=00:01:18.20 bitrate=N/A speed=16.8x    frame= 2094 fps=407 q=-0.0 size=N/A time=00:01:27.33 bitrate=N/A speed=  17x    frame= 2334 fps=412 q=-0.0 size=N/A time=00:01:37.34 bitrate=N/A speed=17.2x    frame= 2605 fps=421 q=-0.0 size=N/A time=00:01:48.65 bitrate=N/A speed=17.6x    frame= 2901 fps=432 q=-0.0 size=N/A time=00:02:00.99 bitrate=N/A speed=  18x    frame= 3193 fps=441 q=-0.0 size=N/A time=00:02:13.17 bitrate=N/A speed=18.4x    frame= 3465 fps=448 q=-0.0 size=N/A time=00:02:24.51 bitrate=N/A speed=18.7x    frame= 3749 fps=454 q=-0.0 size=N/A time=00:02:36.36 bitrate=N/A speed=18.9x    frame= 4025 fps=459 q=-0.0 size=N/A time=00:02:47.87 bitrate=N/A speed=19.1x    frame= 4311 fps=464 q=-0.0 size=N/A time=00:02:59.80 bitrate=N/A speed=19.3x    frame= 4593 fps=469 q=-0.0 size=N/A time=00:03:11.56 bitrate=N/A speed=19.5x    frame= 4864 fps=471 q=-0.0 size=N/A time=00:03:22.86 bitrate=N/A speed=19.6x    frame= 5137 fps=474 q=-0.0 size=N/A time=00:03:34.25 bitrate=N/A speed=19.8x    frame= 5400 fps=475 q=-0.0 size=N/A time=00:03:45.22 bitrate=N/A speed=19.8x    frame= 5645 fps=476 q=-0.0 size=N/A time=00:03:55.44 bitrate=N/A speed=19.8x    frame= 5883 fps=475 q=-0.0 size=N/A time=00:04:05.37 bitrate=N/A speed=19.8x    frame= 6151 fps=477 q=-0.0 size=N/A time=00:04:16.54 bitrate=N/A speed=19.9x    frame= 6391 fps=477 q=-0.0 size=N/A time=00:04:26.55 bitrate=N/A speed=19.9x    frame= 6673 fps=479 q=-0.0 size=N/A time=00:04:38.31 bitrate=N/A speed=  20x    frame= 6945 fps=481 q=-0.0 size=N/A time=00:04:49.66 bitrate=N/A speed=20.1x    frame= 7207 fps=482 q=-0.0 size=N/A time=00:05:00.59 bitrate=N/A speed=20.1x    frame= 7428 fps=480 q=-0.0 size=N/A time=00:05:09.80 bitrate=N/A speed=  20x    frame= 7656 fps=478 q=-0.0 size=N/A time=00:05:19.31 bitrate=N/A speed=19.9x    frame= 7926 fps=479 q=-0.0 size=N/A time=00:05:30.58 bitrate=N/A speed=  20x    frame= 8182 fps=480 q=-0.0 size=N/A time=00:05:41.25 bitrate=N/A speed=  20x    frame= 8454 fps=481 q=-0.0 size=N/A time=00:05:52.60 bitrate=N/A speed=20.1x    frame= 8744 fps=483 q=-0.0 size=N/A time=00:06:04.69 bitrate=N/A speed=20.2x    frame= 8993 fps=483 q=-0.0 size=N/A time=00:06:15.08 bitrate=N/A speed=20.2x    frame= 9207 fps=481 q=-0.0 size=N/A time=00:06:24.00 bitrate=N/A speed=20.1x    frame= 9429 fps=480 q=-0.0 size=N/A time=00:06:33.26 bitrate=N/A speed=  20x    frame= 9671 fps=480 q=-0.0 size=N/A time=00:06:43.36 bitrate=N/A speed=  20x    frame= 9956 fps=481 q=-0.0 size=N/A time=00:06:55.24 bitrate=N/A speed=20.1x    frame=10223 fps=482 q=-0.0 size=N/A time=00:07:06.38 bitrate=N/A speed=20.1x    frame=10508 fps=484 q=-0.0 size=N/A time=00:07:18.27 bitrate=N/A speed=20.2x    frame=10781 fps=485 q=-0.0 size=N/A time=00:07:29.65 bitrate=N/A speed=20.2x    frame=11065 fps=486 q=-0.0 size=N/A time=00:07:41.50 bitrate=N/A speed=20.3x    frame=11339 fps=488 q=-0.0 size=N/A time=00:07:52.93 bitrate=N/A speed=20.3x    frame=11632 fps=489 q=-0.0 size=N/A time=00:08:05.15 bitrate=N/A speed=20.4x    frame=11901 fps=490 q=-0.0 size=N/A time=00:08:16.37 bitrate=N/A speed=20.4x    frame=12188 fps=491 q=-0.0 size=N/A time=00:08:28.34 bitrate=N/A speed=20.5x    frame=12469 fps=493 q=-0.0 size=N/A time=00:08:40.06 bitrate=N/A speed=20.5x    frame=12751 fps=493 q=-0.0 size=N/A time=00:08:51.82 bitrate=N/A speed=20.6x    frame=13036 fps=495 q=-0.0 size=N/A time=00:09:03.70 bitrate=N/A speed=20.6x    frame=13282 fps=494 q=-0.0 size=N/A time=00:09:13.97 bitrate=N/A speed=20.6x    frame=13518 fps=494 q=-0.0 size=N/A time=00:09:23.81 bitrate=N/A speed=20.6x    frame=13768 fps=494 q=-0.0 size=N/A time=00:09:34.24 bitrate=N/A speed=20.6x    frame=14051 fps=494 q=-0.0 size=N/A time=00:09:46.04 bitrate=N/A speed=20.6x    frame=14325 fps=495 q=-0.0 size=N/A time=00:09:57.47 bitrate=N/A speed=20.7x    frame=14609 fps=496 q=-0.0 size=N/A time=00:10:09.31 bitrate=N/A speed=20.7x    frame=14892 fps=497 q=-0.0 size=N/A time=00:10:21.12 bitrate=N/A speed=20.7x    frame=15143 fps=497 q=-0.0 size=N/A time=00:10:31.58 bitrate=N/A speed=20.7x    frame=15402 fps=497 q=-0.0 size=N/A time=00:10:42.39 bitrate=N/A speed=20.7x    frame=15669 fps=497 q=-0.0 size=N/A time=00:10:53.52 bitrate=N/A speed=20.7x    frame=15951 fps=498 q=-0.0 size=N/A time=00:11:05.28 bitrate=N/A speed=20.8x    frame=16230 fps=499 q=-0.0 size=N/A time=00:11:16.92 bitrate=N/A speed=20.8x    frame=16502 fps=499 q=-0.0 size=N/A time=00:11:28.27 bitrate=N/A speed=20.8x    frame=16780 fps=500 q=-0.0 size=N/A time=00:11:39.86 bitrate=N/A speed=20.8x    frame=17055 fps=500 q=-0.0 size=N/A time=00:11:51.33 bitrate=N/A speed=20.9x    frame=17335 fps=501 q=-0.0 size=N/A time=00:12:03.01 bitrate=N/A speed=20.9x    frame=17606 fps=501 q=-0.0 size=N/A time=00:12:14.31 bitrate=N/A speed=20.9x    frame=17892 fps=502 q=-0.0 size=N/A time=00:12:26.24 bitrate=N/A speed=20.9x    frame=18168 fps=503 q=-0.0 size=N/A time=00:12:37.75 bitrate=N/A speed=  21x    frame=18452 fps=503 q=-0.0 size=N/A time=00:12:49.60 bitrate=N/A speed=  21x    frame=18718 fps=503 q=-0.0 size=N/A time=00:13:00.69 bitrate=N/A speed=  21x    frame=19001 fps=504 q=-0.0 size=N/A time=00:13:12.50 bitrate=N/A speed=  21x    frame=19273 fps=504 q=-0.0 size=N/A time=00:13:23.84 bitrate=N/A speed=  21x    frame=19556 fps=505 q=-0.0 size=N/A time=00:13:35.64 bitrate=N/A speed=21.1x    frame=19802 fps=505 q=-0.0 size=N/A time=00:13:45.90 bitrate=N/A speed=  21x    frame=20096 fps=505 q=-0.0 size=N/A time=00:13:58.17 bitrate=N/A speed=21.1x    frame=20377 fps=506 q=-0.0 size=N/A time=00:14:09.89 bitrate=N/A speed=21.1x    frame=20666 fps=507 q=-0.0 size=N/A time=00:14:21.94 bitrate=N/A speed=21.1x    frame=20934 fps=507 q=-0.0 size=N/A time=00:14:33.12 bitrate=N/A speed=21.1x    frame=21201 fps=507 q=-0.0 size=N/A time=00:14:44.25 bitrate=N/A speed=21.1x    frame=21490 fps=508 q=-0.0 size=N/A time=00:14:56.31 bitrate=N/A speed=21.2x    frame=21784 fps=508 q=-0.0 size=N/A time=00:15:08.57 bitrate=N/A speed=21.2x    frame=22075 fps=509 q=-0.0 size=N/A time=00:15:20.71 bitrate=N/A speed=21.2x    frame=22352 fps=509 q=-0.0 size=N/A time=00:15:32.26 bitrate=N/A speed=21.2x    frame=22630 fps=509 q=-0.0 size=N/A time=00:15:43.85 bitrate=N/A speed=21.2x    frame=22914 fps=510 q=-0.0 size=N/A time=00:15:55.70 bitrate=N/A speed=21.3x    frame=23206 fps=511 q=-0.0 size=N/A time=00:16:07.88 bitrate=N/A speed=21.3x    frame=23492 fps=511 q=-0.0 size=N/A time=00:16:19.81 bitrate=N/A speed=21.3x    frame=23760 fps=511 q=-0.0 size=N/A time=00:16:30.99 bitrate=N/A speed=21.3x    frame=24055 fps=512 q=-0.0 size=N/A time=00:16:43.29 bitrate=N/A speed=21.3x    frame=24332 fps=512 q=-0.0 size=N/A time=00:16:54.84 bitrate=N/A speed=21.4x    frame=24624 fps=513 q=-0.0 size=N/A time=00:17:07.02 bitrate=N/A speed=21.4x    frame=24906 fps=513 q=-0.0 size=N/A time=00:17:18.78 bitrate=N/A speed=21.4x    frame=25182 fps=513 q=-0.0 size=N/A time=00:17:30.29 bitrate=N/A speed=21.4x    frame=25464 fps=513 q=-0.0 size=N/A time=00:17:42.06 bitrate=N/A speed=21.4x    frame=25743 fps=514 q=-0.0 size=N/A time=00:17:53.69 bitrate=N/A speed=21.4x    frame=26036 fps=514 q=-0.0 size=N/A time=00:18:05.91 bitrate=N/A speed=21.5x    frame=26327 fps=515 q=-0.0 size=N/A time=00:18:18.05 bitrate=N/A speed=21.5x    frame=26617 fps=515 q=-0.0 size=N/A time=00:18:30.15 bitrate=N/A speed=21.5x    frame=26902 fps=516 q=-0.0 size=N/A time=00:18:42.03 bitrate=N/A speed=21.5x    frame=27182 fps=516 q=-0.0 size=N/A time=00:18:53.71 bitrate=N/A speed=21.5x    frame=27467 fps=516 q=-0.0 size=N/A time=00:19:05.60 bitrate=N/A speed=21.5x    frame=27747 fps=517 q=-0.0 size=N/A time=00:19:17.28 bitrate=N/A speed=21.5x    frame=28021 fps=517 q=-0.0 size=N/A time=00:19:28.70 bitrate=N/A speed=21.5x    frame=28284 fps=517 q=-0.0 size=N/A time=00:19:39.67 bitrate=N/A speed=21.6x    frame=28562 fps=517 q=-0.0 size=N/A time=00:19:51.27 bitrate=N/A speed=21.6x    frame=28823 fps=517 q=-0.0 size=N/A time=00:20:02.15 bitrate=N/A speed=21.6x    frame=29094 fps=517 q=-0.0 size=N/A time=00:20:13.46 bitrate=N/A speed=21.6x    frame=29360 fps=517 q=-0.0 size=N/A time=00:20:24.55 bitrate=N/A speed=21.6x    frame=29630 fps=517 q=-0.0 size=N/A time=00:20:35.81 bitrate=N/A speed=21.6x    frame=29903 fps=517 q=-0.0 size=N/A time=00:20:47.20 bitrate=N/A speed=21.6x    frame=30183 fps=517 q=-0.0 size=N/A time=00:20:58.88 bitrate=N/A speed=21.6x    frame=30452 fps=517 q=-0.0 size=N/A time=00:21:10.10 bitrate=N/A speed=21.6x    frame=30724 fps=517 q=-0.0 size=N/A time=00:21:21.44 bitrate=N/A speed=21.6x    frame=30898 fps=516 q=-0.0 size=N/A time=00:21:28.70 bitrate=N/A speed=21.5x    frame=31049 fps=514 q=-0.0 size=N/A time=00:21:35.00 bitrate=N/A speed=21.4x    frame=31236 fps=513 q=-0.0 size=N/A time=00:21:42.80 bitrate=N/A speed=21.4x    frame=31396 fps=511 q=-0.0 size=N/A time=00:21:49.47 bitrate=N/A speed=21.3x    frame=31564 fps=509 q=-0.0 size=N/A time=00:21:56.48 bitrate=N/A speed=21.2x    frame=31735 fps=508 q=-0.0 size=N/A time=00:22:03.61 bitrate=N/A speed=21.2x    frame=31908 fps=506 q=-0.0 size=N/A time=00:22:10.82 bitrate=N/A speed=21.1x    frame=32107 fps=506 q=-0.0 size=N/A time=00:22:19.12 bitrate=N/A speed=21.1x    frame=32264 fps=504 q=-0.0 size=N/A time=00:22:25.67 bitrate=N/A speed=  21x    frame=32469 fps=503 q=-0.0 size=N/A time=00:22:34.22 bitrate=N/A speed=  21x    frame=32680 fps=502 q=-0.0 size=N/A time=00:22:43.02 bitrate=N/A speed=  21x    frame=32859 fps=501 q=-0.0 size=N/A time=00:22:50.49 bitrate=N/A speed=20.9x    [Parsed_psnr_10 @ 000001f81d0cd040] PSNR y:50.340757 u:52.865212 v:53.149994 average:51.061174 min:38.577485 max:inf
[out#0/null @ 000001f80ff24dc0] video:14161KiB audio:257956KiB subtitle:0KiB other streams:0KiB global headers:0KiB muxing overhead: unknown
frame=32957 fps=500 q=-0.0 Lsize=N/A time=00:22:54.58 bitrate=N/A speed=20.9x    
